<?xml version="1.0" encoding="utf-8"?>
<svg id="master-artboard" viewBox="0 0 608.22998046875 96.15560913085938" version="1.1" xmlns="http://www.w3.org/2000/svg" x="0px" y="0px" style="enable-background:new 0 0 700 550;" width="608.22998046875px" height="96.15560913085938px"><rect id="ee-background" x="0" y="0" width="608.22998046875" height="96.15560913085938" style="fill: white; fill-opacity: 0; pointer-events: none;"/>







<g id="Layer_8" transform="matrix(1, 0, 0, 1, -49.22209548950195, -326.2006530761719)">
	<g>
		<path d="M352.5,412.2c9.2,0,4.6-30.5-21.3-31c-12.4-0.2-16.1,11,1.8,11c35.2,0,38.9-46.2-11.4-46.2c-61.6,0-89.7,49.2-160.5,49.2&#10;&#9;&#9;&#9;c-55.1,0-62.5-50.8-13.2-50.8c52.7,0,82.2,52.7,130.2,52.7c57.3,0,54.6-62-1.9-62c-46.1,0-44.4,47.1,3.3,47.1&#10;&#9;&#9;&#9;c19.3,0,22.4-13.3,8-13.3c-24.3,0-47.7,34.5-91.2,34.5c-59.7,0-59.5-63.4-2.5-63.4c36.4,0,32,33.2-13.2,33.2&#10;&#9;&#9;&#9;c-34.2,0-53.8-21-86.2-21c-53.6,0-54.8,58.5-4,58.5c35.7,0,34.7-33,3-33c-5.6,0-9.3,2.5-9.3,2.5s4.6-1.8,9.2-1.8&#10;&#9;&#9;&#9;c29.8,0,33.2,31.4-4.4,31.4c-42.5,0-52-52.1,4.1-52.1c34.5,0,54.5,16.9,86.9,16.9c46.9,0,51.2-35.4,13.9-35.4&#10;&#9;&#9;&#9;c-58.6,0-58.6,66.2,6.2,66.2c38.5,0,66.9-35.8,87.5-35.8c12.2,0,11.8,11.8-7.7,11.8c-43.6,0-51.5-42.8-4.1-42.8&#10;&#9;&#9;&#9;c58.2,0,56.9,57.9,2.6,57.9c-47.8,0-76.4-52.7-129.9-52.7c-52.1,0-42.3,53.5,15.6,53.5c81.1,0,90.2-50.1,157.4-50.1&#10;&#9;&#9;&#9;c50.2,0,46,44.6,11.8,44.6c-14.2,0-15.2-8.3-2.6-8.3c27.2,0,29.7,28.2,22.2,28.2c-7.5,0-5.1-28.2,22.2-28.2&#10;&#9;&#9;&#9;c12.6,0,11.7,8.3-2.6,8.3c-34.2,0-38.3-44.6,11.8-44.6c67.1,0,76.2,50.1,157.4,50.1c57.8,0,67.7-53.5,15.6-53.5&#10;&#9;&#9;&#9;c-53.5,0-82.1,52.7-129.9,52.7c-54.3,0-55.7-57.9,2.6-57.9c47.4,0,39.5,42.8-4.1,42.8c-19.5,0-19.9-11.8-7.7-11.8&#10;&#9;&#9;&#9;c20.5,0,49,35.8,87.5,35.8c64.9,0,64.9-66.2,6.2-66.2c-37.3,0-33,35.4,13.9,35.4c32.4,0,52.4-16.9,86.9-16.9&#10;&#9;&#9;&#9;c56.1,0,46.6,52.1,4.1,52.1c-37.6,0-34.2-31.4-4.4-31.4c4.6,0,9.2,1.8,9.2,1.8s-3.7-2.5-9.3-2.5c-31.7,0-32.7,33,3,33&#10;&#9;&#9;&#9;c50.8,0,49.6-58.5-4-58.5c-32.4,0-52,21-86.2,21c-45.2,0-49.6-33.2-13.2-33.2c57,0,57.2,63.4-2.5,63.4&#10;&#9;&#9;&#9;c-43.5,0-66.9-34.5-91.2-34.5c-14.4,0-11.3,13.3,8,13.3c47.7,0,49.3-47.1,3.3-47.1c-56.6,0-59.2,62-1.9,62&#10;&#9;&#9;&#9;c48,0,77.4-52.7,130.2-52.7c49.3,0,41.9,50.8-13.2,50.8c-70.8,0-98.9-49.2-160.5-49.2c-50.3,0-46.6,46.2-11.4,46.2&#10;&#9;&#9;&#9;c17.9,0,14.2-11.2,1.8-11C347.9,381.7,343.3,412.2,352.5,412.2z"/>
	</g>
</g>



</svg>